<mxfile host="app.diagrams.net" modified="2020-10-19T17:36:40.828Z" agent="5.0 (Macintosh; Intel Mac OS X 10_15_7) AppleWebKit/537.36 (KHTML, like Gecko) Chrome/86.0.4240.80 Safari/537.36" etag="HOWrVXne-_WGWXb-GXPi" version="13.8.0" type="github" pages="2">
  <diagram id="13VyAanqFOhvAUCbbG8V" name="Page-1">
    <mxGraphModel dx="1835" dy="2617" grid="1" gridSize="10" guides="1" tooltips="1" connect="1" arrows="1" fold="1" page="1" pageScale="1" pageWidth="827" pageHeight="1169" math="0" shadow="0">
      <root>
        <mxCell id="0" />
        <mxCell id="1" parent="0" />
        <mxCell id="uKoPLyJ_3GidWpt5rB-8-34" value="" style="html=1;rounded=0;shadow=0;glass=0;dashed=1;sketch=0;fillStyle=dashed;strokeWidth=2;fillColor=#FFFFFF;opacity=60;align=left;" vertex="1" parent="1">
          <mxGeometry x="120" y="-460" width="690" height="560" as="geometry" />
        </mxCell>
        <mxCell id="uKoPLyJ_3GidWpt5rB-8-58" value="" style="shape=datastore;whiteSpace=wrap;html=1;rounded=0;shadow=0;glass=0;sketch=0;fillStyle=auto;strokeWidth=2;fillColor=#FFFFFF;opacity=60;" vertex="1" parent="1">
          <mxGeometry x="300" y="-390" width="60" height="60" as="geometry" />
        </mxCell>
        <mxCell id="uKoPLyJ_3GidWpt5rB-8-60" value="MSQL Database" style="text;html=1;align=center;verticalAlign=middle;resizable=0;points=[];autosize=1;" vertex="1" parent="1">
          <mxGeometry x="300" y="-410" width="100" height="20" as="geometry" />
        </mxCell>
        <mxCell id="uKoPLyJ_3GidWpt5rB-8-61" value="&lt;i&gt;&lt;b&gt;&lt;u&gt;BACKEND SIDE&lt;/u&gt;&lt;/b&gt;&lt;/i&gt;" style="text;html=1;align=center;verticalAlign=middle;resizable=0;points=[];autosize=1;" vertex="1" parent="1">
          <mxGeometry x="130" y="-430" width="110" height="20" as="geometry" />
        </mxCell>
        <mxCell id="uKoPLyJ_3GidWpt5rB-8-62" value="" style="whiteSpace=wrap;html=1;rounded=0;shadow=0;glass=0;sketch=0;fillStyle=auto;strokeWidth=2;fillColor=#FFFFFF;opacity=60;" vertex="1" parent="1">
          <mxGeometry x="200" y="-300" width="260" height="340" as="geometry" />
        </mxCell>
        <mxCell id="uKoPLyJ_3GidWpt5rB-8-69" style="edgeStyle=orthogonalEdgeStyle;rounded=0;orthogonalLoop=1;jettySize=auto;html=1;exitX=0.5;exitY=0;exitDx=0;exitDy=0;" edge="1" parent="1" source="uKoPLyJ_3GidWpt5rB-8-64" target="uKoPLyJ_3GidWpt5rB-8-58">
          <mxGeometry relative="1" as="geometry" />
        </mxCell>
        <mxCell id="uKoPLyJ_3GidWpt5rB-8-64" value="Container&lt;br&gt;Gateway" style="whiteSpace=wrap;html=1;rounded=0;shadow=0;glass=0;sketch=0;fillStyle=auto;strokeWidth=2;fillColor=#FFFFFF;opacity=60;" vertex="1" parent="1">
          <mxGeometry x="300" y="-200" width="60" height="100" as="geometry" />
        </mxCell>
        <mxCell id="uKoPLyJ_3GidWpt5rB-8-67" value="" style="shape=datastore;whiteSpace=wrap;html=1;rounded=0;shadow=0;glass=0;sketch=0;fillStyle=auto;strokeWidth=2;fillColor=#FFFFFF;opacity=60;" vertex="1" parent="1">
          <mxGeometry x="230" y="-30" width="60" height="60" as="geometry" />
        </mxCell>
        <mxCell id="uKoPLyJ_3GidWpt5rB-8-68" value="Embedded database" style="text;html=1;align=center;verticalAlign=middle;resizable=0;points=[];autosize=1;" vertex="1" parent="1">
          <mxGeometry x="290" width="130" height="20" as="geometry" />
        </mxCell>
        <mxCell id="uKoPLyJ_3GidWpt5rB-8-70" value="Machine funning &lt;br&gt;a Docke Daemon&amp;nbsp;" style="text;html=1;align=center;verticalAlign=middle;resizable=0;points=[];autosize=1;" vertex="1" parent="1">
          <mxGeometry x="330" y="-270" width="110" height="30" as="geometry" />
        </mxCell>
        <mxCell id="BvbEws9mV1S3FFfNSlts-2" value="&lt;font style=&quot;font-size: 14px&quot;&gt;&lt;b&gt;&lt;i&gt;&lt;u&gt;Services Delivered&lt;/u&gt;&lt;/i&gt;&lt;/b&gt;&lt;/font&gt;" style="text;html=1;align=center;verticalAlign=middle;resizable=0;points=[];autosize=1;" vertex="1" parent="1">
          <mxGeometry x="670" y="-265" width="140" height="20" as="geometry" />
        </mxCell>
        <mxCell id="BvbEws9mV1S3FFfNSlts-8" value="" style="html=1;verticalAlign=bottom;endArrow=block;exitX=1;exitY=0.25;exitDx=0;exitDy=0;" edge="1" parent="1" source="uKoPLyJ_3GidWpt5rB-8-62">
          <mxGeometry width="80" relative="1" as="geometry">
            <mxPoint x="460" y="-170" as="sourcePoint" />
            <mxPoint x="660" y="-215" as="targetPoint" />
          </mxGeometry>
        </mxCell>
        <mxCell id="BvbEws9mV1S3FFfNSlts-9" value="" style="html=1;verticalAlign=bottom;endArrow=block;exitX=1;exitY=0.5;exitDx=0;exitDy=0;entryX=-0.046;entryY=0.525;entryDx=0;entryDy=0;entryPerimeter=0;" edge="1" parent="1" source="uKoPLyJ_3GidWpt5rB-8-62" target="BvbEws9mV1S3FFfNSlts-11">
          <mxGeometry width="80" relative="1" as="geometry">
            <mxPoint x="420" y="-160" as="sourcePoint" />
            <mxPoint x="650" y="-110" as="targetPoint" />
            <Array as="points">
              <mxPoint x="580" y="-130" />
            </Array>
          </mxGeometry>
        </mxCell>
        <mxCell id="BvbEws9mV1S3FFfNSlts-10" value="&lt;font style=&quot;font-size: 18px&quot;&gt;&lt;font&gt;Service&lt;/font&gt;&amp;nbsp;1&lt;/font&gt;" style="text;html=1;align=center;verticalAlign=middle;resizable=0;points=[];autosize=1;" vertex="1" parent="1">
          <mxGeometry x="665" y="-220" width="90" height="20" as="geometry" />
        </mxCell>
        <mxCell id="BvbEws9mV1S3FFfNSlts-11" value="&lt;font style=&quot;font-size: 18px&quot;&gt;&amp;nbsp; &amp;nbsp; &amp;nbsp;Service&lt;/font&gt;&lt;span style=&quot;font-size: 18px&quot;&gt;&amp;nbsp;2&lt;/span&gt;" style="text;html=1;align=center;verticalAlign=middle;resizable=0;points=[];autosize=1;" vertex="1" parent="1">
          <mxGeometry x="660" y="-140" width="120" height="20" as="geometry" />
        </mxCell>
        <mxCell id="BvbEws9mV1S3FFfNSlts-12" value="" style="html=1;verticalAlign=bottom;endArrow=block;exitX=1;exitY=0.75;exitDx=0;exitDy=0;" edge="1" parent="1" source="uKoPLyJ_3GidWpt5rB-8-62">
          <mxGeometry width="80" relative="1" as="geometry">
            <mxPoint x="469.48" y="-61.86000000000013" as="sourcePoint" />
            <mxPoint x="660" y="-45" as="targetPoint" />
            <Array as="points">
              <mxPoint x="620" y="-45" />
            </Array>
          </mxGeometry>
        </mxCell>
        <mxCell id="BvbEws9mV1S3FFfNSlts-14" value="&lt;font style=&quot;font-size: 18px&quot;&gt;&amp;nbsp; &amp;nbsp; &amp;nbsp; &amp;nbsp; Service&lt;/font&gt;&lt;span style=&quot;font-size: 18px&quot;&gt;&amp;nbsp;3&lt;/span&gt;" style="text;html=1;align=center;verticalAlign=middle;resizable=0;points=[];autosize=1;" vertex="1" parent="1">
          <mxGeometry x="645" y="-60" width="130" height="20" as="geometry" />
        </mxCell>
        <mxCell id="BvbEws9mV1S3FFfNSlts-18" value="" style="html=1;rounded=0;shadow=0;glass=0;dashed=1;sketch=0;fillStyle=dashed;strokeWidth=2;fillColor=#FFFFFF;opacity=60;align=left;" vertex="1" parent="1">
          <mxGeometry x="-80" y="-460" width="200" height="560" as="geometry" />
        </mxCell>
      </root>
    </mxGraphModel>
  </diagram>
  <diagram id="Zqp17IYBuAJ2xRkM_VbI" name="Page-2">
    <mxGraphModel dx="403" dy="579" grid="1" gridSize="10" guides="1" tooltips="1" connect="1" arrows="1" fold="1" page="1" pageScale="1" pageWidth="827" pageHeight="1169" math="0" shadow="0">
      <root>
        <mxCell id="I1koprlJKOrljNIi48LN-0" />
        <mxCell id="I1koprlJKOrljNIi48LN-1" parent="I1koprlJKOrljNIi48LN-0" />
      </root>
    </mxGraphModel>
  </diagram>
</mxfile>
